<svg version="1.1" xmlns="http://www.w3.org/2000/svg" width="512" height="512" viewBox="0 0 512 512"><title>fax</title><path d="M82.285 109.715c25.143 0 45.715 20.572 45.715 45.715v310.857c0 25.143-20.572 45.715-45.715 45.715h-36.572c-25.143 0-45.715-20.572-45.715-45.714v-310.857c0-25.143 20.572-45.715 45.715-45.715h36.572zM475.428 156.286c21.714 12.572 36.572 36.286 36.572 63.143v219.429c0 40.286-32.857 73.143-73.143 73.143h-246.857c-25.143 0-45.715-20.572-45.715-45.714v-438.857c0-15.143 12.286-27.428 27.428-27.428h192c15.143 0 36.286 8.857 46.857 19.428l43.428 43.428c10.572 10.572 19.428 31.715 19.428 46.857v46.572zM265.143 438.857v-36.572c0-5.143-4-9.143-9.143-9.143h-36.571c-5.143 0-9.143 4-9.143 9.143v36.572c0 5.143 4 9.143 9.143 9.143h36.572c5.143 0 9.143-4 9.143-9.143zM265.143 365.714v-36.572c0-5.143-4-9.143-9.143-9.143h-36.571c-5.143 0-9.143 4-9.143 9.143v36.572c0 5.143 4 9.143 9.143 9.143h36.572c5.143 0 9.143-4 9.143-9.143zM265.143 292.572v-36.572c0-5.143-4-9.143-9.143-9.143h-36.571c-5.143 0-9.143 4-9.143 9.143v36.572c0 5.143 4 9.143 9.143 9.143h36.572c5.143 0 9.143-4 9.143-9.143zM338.286 438.857v-36.572c0-5.143-4-9.143-9.143-9.143h-36.572c-5.143 0-9.143 4-9.143 9.143v36.572c0 5.143 4 9.143 9.143 9.143h36.572c5.143 0 9.143-4 9.143-9.143zM338.286 365.714v-36.572c0-5.143-4-9.143-9.143-9.143h-36.572c-5.143 0-9.143 4-9.143 9.143v36.572c0 5.143 4 9.143 9.143 9.143h36.572c5.143 0 9.143-4 9.143-9.143zM338.286 292.572v-36.572c0-5.143-4-9.143-9.143-9.143h-36.572c-5.143 0-9.143 4-9.143 9.143v36.572c0 5.143 4 9.143 9.143 9.143h36.572c5.143 0 9.143-4 9.143-9.143zM411.428 438.857v-36.572c0-5.143-4-9.143-9.143-9.143h-36.572c-5.143 0-9.143 4-9.143 9.143v36.572c0 5.143 4 9.143 9.143 9.143h36.572c5.143 0 9.143-4 9.143-9.143zM411.428 365.714v-36.572c0-5.143-4-9.143-9.143-9.143h-36.572c-5.143 0-9.143 4-9.143 9.143v36.572c0 5.143 4 9.143 9.143 9.143h36.572c5.143 0 9.143-4 9.143-9.143zM411.428 292.572v-36.572c0-5.143-4-9.143-9.143-9.143h-36.572c-5.143 0-9.143 4-9.143 9.143v36.572c0 5.143 4 9.143 9.143 9.143h36.572c5.143 0 9.143-4 9.143-9.143zM438.857 182.857v-73.143h-45.714c-15.143 0-27.428-12.285-27.428-27.428v-45.715h-182.857v146.286h256z"></path></svg>